<?xml version="1.0" standalone="no"?><!DOCTYPE svg PUBLIC "-//W3C//DTD SVG 1.1//EN" "http://www.w3.org/Graphics/SVG/1.1/DTD/svg11.dtd"><svg t="1674609656290" class="icon" viewBox="0 0 1024 1024" version="1.1" xmlns="http://www.w3.org/2000/svg" p-id="3404" xmlns:xlink="http://www.w3.org/1999/xlink" width="200" height="200"><path d="M879.28 916.37H145.9c-9.86 0-17.86-7.99-17.86-17.86V234.64c0-9.86 7.99-17.86 17.86-17.86h733.38c9.86 0 17.86 7.99 17.86 17.86v663.88c0 9.86-7.99 17.85-17.86 17.85z" fill="#FFFFFF" p-id="3405"></path><path d="M844.64 216.78h-57.78v699.59h57.78c29 0 52.5-23.51 52.5-52.5V269.28c0-28.99-23.51-52.5-52.5-52.5z" fill="#D0E2F3" p-id="3406"></path><path d="M128.05 269.28V431.7h769.09V269.28c0-29-23.51-52.5-52.5-52.5H180.55c-29 0-52.5 23.51-52.5 52.5z" fill="#EE8C98" p-id="3407"></path><path d="M897.14 431.7V269.28c0-29-23.51-52.5-52.5-52.5h-57.78V431.7h110.28z" fill="#D96478" p-id="3408"></path><path d="M844.64 934.02H180.55c-38.68 0-70.14-31.47-70.14-70.14v-594.6c0-38.68 31.47-70.14 70.14-70.14h664.09c38.68 0 70.14 31.47 70.14 70.14v594.59c0 38.68-31.47 70.15-70.14 70.15z m-664.09-699.6c-19.22 0-34.86 15.64-34.86 34.86v594.59c0 19.22 15.64 34.86 34.86 34.86h664.09c19.22 0 34.86-15.64 34.86-34.86V269.28c0-19.22-15.64-34.86-34.86-34.86H180.55z" fill="#49416F" p-id="3409"></path><path d="M897.14 449.34h-769.1c-9.74 0-17.64-7.9-17.64-17.64V269.28c0-38.68 31.47-70.14 70.14-70.14h664.09c38.68 0 70.14 31.47 70.14 70.14V431.7c0.01 9.74-7.89 17.64-17.63 17.64z m-751.45-35.28H879.5V269.28c0-19.22-15.64-34.86-34.86-34.86H180.55c-19.22 0-34.86 15.64-34.86 34.86v144.78z" fill="#49416F" p-id="3410"></path><path d="M356.25 317.69h-73.86c-1.24 0-2.25-1.01-2.25-2.25V118.12c0-1.24 1.01-2.25 2.25-2.25h73.86c1.24 0 2.25 1.01 2.25 2.25v197.33c0 1.24-1.01 2.24-2.25 2.24zM705.87 317.69c-21.64 0-39.18-17.54-39.18-39.18V155.05c0-21.64 17.54-39.18 39.18-39.18s39.18 17.54 39.18 39.18v123.47c-0.01 21.63-17.55 39.17-39.18 39.17z" fill="#A0C8EA" p-id="3411"></path><path d="M499.26 641.69c18.28 17.91 27.24 41.79 27.24 65.3s-8.96 47.39-27.24 65.67a92.988 92.988 0 0 1-65.67 27.24c-23.51 0-47.39-9.33-65.3-27.24-8.21-8.21-8.21-21.64 0-29.85s21.64-8.21 29.85 0c9.7 9.7 22.39 14.55 35.45 14.55 13.06 0 25.75-4.85 35.82-14.55 10.08-10.07 14.93-22.76 14.93-35.82 0-13.06-4.85-25.75-14.93-35.45-9.7-10.07-22.39-14.55-35.45-14.93-5.97 0.37-11.57-2.24-15.3-6.72-0.37 0-0.37 0-0.37-0.37-8.58-8.21-8.58-21.27-0.75-29.85l38.06-38.81h-60.45c-11.57 0-20.9-9.33-20.9-21.27 0-11.57 9.33-20.9 20.9-20.9h110.08c11.94 0 21.27 9.33 21.27 20.9 0 3.73-1.12 7.09-2.61 10.07-1.12 1.87-2.24 3.73-3.73 5.22l-47.02 48.51c9.7 4.49 18.66 10.46 26.12 18.3zM663.06 559.6v220.16c0 11.57-9.7 20.52-20.9 20.52-11.57 0-20.52-8.96-20.52-20.52v-183.6l-14.93 8.58c-3.36 2.24-7.09 2.99-10.45 2.99-7.09 0-13.81-3.73-17.54-10.45-6.34-9.33-2.98-22.39 6.72-27.99l45.9-27.24c0.37-0.37 1.12-0.37 1.49-0.75 0.75 0 1.12-0.75 1.87-1.12 0.75 0 1.49-0.37 2.24-0.37 0.37-0.37 1.12-0.37 1.49-0.37 0.75-0.37 1.87-0.37 2.61-0.37h4.1c0.37 0.37 1.12 0.37 1.49 0.37 1.12 0 1.49 0.37 2.24 0.75 0.37 0 1.12 0 1.49 0.37 1.12 0.75 1.49 1.12 2.24 1.12 0.37 0.37 0.75 0.75 1.49 1.12 0.37 0.37 1.12 0.75 1.49 1.12 0.75 0.37 1.12 1.12 1.49 1.49 0.37 0.37 0.75 0.75 1.12 1.49l1.49 1.49 0.37 0.75c0 0.37 0.37 0.75 0.37 1.12 0.37 0.75 0.75 1.12 0.75 1.86 0.37 0.75 0.37 1.49 0.75 1.87 0 0.75 0.37 1.49 0.37 1.87 0 1.12 0 1.86 0.75 2.61 0.02 0.38 0.02 0.75 0.02 1.13z" fill="#49416F" p-id="3412"></path><path d="M319.32 335.33c-31.33 0-56.82-25.49-56.82-56.82V155.05c0-31.33 25.49-56.82 56.82-56.82s56.82 25.49 56.82 56.82v123.47c0 31.33-25.49 56.81-56.82 56.81z m0-201.82c-11.88 0-21.53 9.66-21.53 21.54v123.47c0 11.87 9.66 21.53 21.53 21.53s21.53-9.66 21.53-21.53V155.05c0-11.88-9.66-21.54-21.53-21.54zM705.87 335.33c-31.33 0-56.82-25.49-56.82-56.82V155.05c0-31.33 25.49-56.82 56.82-56.82 31.33 0 56.82 25.49 56.82 56.82v123.47c-0.01 31.33-25.49 56.81-56.82 56.81z m0-201.82c-11.88 0-21.53 9.66-21.53 21.54v123.47c0 11.87 9.66 21.53 21.53 21.53s21.53-9.66 21.53-21.53V155.05c0-11.88-9.66-21.54-21.53-21.54z" fill="#49416F" p-id="3413"></path></svg>